inDegrees=yes
name=ik_S52_A11_T02
DataType=double
version=3
OpenSimVersion=4.3-2021-08-27-4bc7ad9
endheader
time	pelvis_tilt	pelvis_list	pelvis_rotation	pelvis_tx	pelvis_ty	pelvis_tz	hip_flexion_r	hip_adduction_r	hip_rotation_r	knee_angle_r	knee_angle_r_beta	ankle_angle_r	subtalar_angle_r	mtp_angle_r	hip_flexion_l	hip_adduction_l	hip_rotation_l	knee_angle_l	knee_angle_l_beta	ankle_angle_l	subtalar_angle_l	mtp_angle_l	lumbar_extension	lumbar_bending	lumbar_rotation	arm_flex_r	arm_add_r	arm_rot_r	elbow_flex_r	pro_sup_r	wrist_flex_r	wrist_dev_r	arm_flex_l	arm_add_l	arm_rot_l	elbow_flex_l	pro_sup_l	wrist_flex_l	wrist_dev_l
16.79999999999973	-0.8490686465814876	-2.218454778437377	27.65099632783942	0	0.9399999999999999	0	31.7345664354573	-9.525137747710382	-8.892506739405368	34.82887919785971	0.6078786167820135	0	0	0	31.7345664354573	-9.525137747710382	-8.892506739405368	34.82887919785971	0.6078786167820135	0	0	0	-1.426409426678191	-1.76884189505255	10.63984147972558	78.80024452516109	-14.59894523937645	-0.2414734726371332	45.97133075588047	73.68419581671712	0	0	10.22496156472144	-7.672368619492754	-2.913251174479405	8.385615432109288	120.7389357457088	0	0
16.81999999999973	-0.900140238927854	-2.164142430452507	27.38503015108073	0	0.9399999999999999	0	31.73947311876927	-9.525731508576293	-8.893395787296875	34.83423615068104	0.6079721132466197	0	0	0	31.73947311876927	-9.525731508576293	-8.893395787296875	34.83423615068104	0.6079721132466197	0	0	0	-1.441444252724096	-1.703863338352581	10.79566605088287	76.54707101846923	-15.36468425828933	-0.3304911660204052	46.074174339036	74.21239400892746	0	0	10.18781898172094	-7.501435520035759	-2.797104917254234	8.387911190496492	120.6368095500423	0	0
16.83999999999973	-0.9382912443125964	-2.111778712979981	27.10880193130978	0	0.9399999999999999	0	31.74527224621745	-9.526432804145047	-8.894446263954494	34.84056620281206	0.6080825934981289	0	0	0	31.74527224621745	-9.526432804145047	-8.894446263954494	34.84056620281206	0.6080825934981289	0	0	0	-1.447485551572559	-1.643673379763771	10.96859607651552	74.10086874805067	-16.15024487752347	-0.8163632040283397	46.15124505511137	75.1891385216455	0	0	10.17387446418614	-7.393513371064605	-2.917586426605194	8.389452053515377	120.7384030362209	0	0
16.85999999999973	-0.9586296522442789	-2.129955300690708	26.81869247145544	0	0.9399999999999999	0	31.75290571404865	-9.527357342938197	-8.895830641303121	34.84888006377447	0.6082276977454759	0	0	0	31.75290571404865	-9.527357342938197	-8.895830641303121	34.84888006377447	0.6082276977454759	0	0	0	-1.46585515446335	-1.661165436690068	11.18133143067671	71.7258071512499	-17.01651723765469	-1.25323501864017	45.98159050818368	76.28039907461152	0	0	10.27625774848138	-7.396876963709698	-2.439250945857174	8.415517145351192	120.3704248420283	0	0
16.87999999999973	-0.9704984038607045	-2.128052212244634	26.59638039268053	0	0.9399999999999999	0	31.76193827171639	-9.528449359332795	-8.897467236994215	34.85872210361771	0.6083994737458529	0	0	0	31.76193827171639	-9.528449359332795	-8.897467236994215	34.85872210361771	0.6083994737458529	0	0	0	-1.471906876974107	-1.659155836327691	11.36304474694267	69.41003262457421	-17.88510307790708	-1.16083467966041	45.65484762821618	78.1271487938788	0	0	10.28263534260605	-7.388885485047169	-2.486175812023157	8.460838349966739	120.5456106246664	0	0
16.89999999999973	-0.9629805130613188	-2.120439217696471	26.20030706039833	0	0.9399999999999999	0	31.7821695955986	-9.530879875518108	-8.901121471215406	34.88079056192417	0.6087846410041398	0	0	0	31.7821695955986	-9.530879875518108	-8.901121471215406	34.88079056192417	0.6087846410041398	0	0	0	-1.459053458152794	-1.650233298708951	11.72711720729845	64.24682585562834	-19.25860038431094	-1.222922586088492	45.18246622417624	84.35824495271039	0	0	10.39008150707561	-7.336305540648674	-2.564263493806167	8.365389756327881	120.7095163164877	0	0
16.91999999999973	-0.9800602729441179	-2.074682464022716	25.9600441313859	0	0.9399999999999999	0	31.79183660015687	-9.532027660574959	-8.902854193137935	34.89144841619515	0.6089706556523662	0	0	0	31.79183660015687	-9.532027660574959	-8.902854193137935	34.89144841619515	0.6089706556523662	0	0	0	-1.448956503854287	-1.609664817718726	11.92990949094737	64.23044548761636	-19.06051434576148	-1.348230043015739	41.71057496238972	87.90757234787857	0	0	10.3822808645838	-7.220970351826921	-2.689093626343307	8.341688810377565	120.7920786721994	0	0
16.93999999999973	-1.011336015279836	-2.069324386178639	25.7106163334697	0	0.9399999999999999	0	31.79860536130674	-9.532838026855446	-8.904074280014918	34.89884738357299	0.6090997919943572	0	0	0	31.79860536130674	-9.532838026855446	-8.904074280014918	34.89884738357299	0.6090997919943572	0	0	0	-1.466835397633237	-1.605626543232445	12.09698039069647	61.7432923920995	-19.86365247936814	-1.764328068398907	44.44786729181126	87.38751049878493	0	0	10.41845414538718	-7.195332301954894	-2.774004748683632	8.360765908061854	120.8048111855206	0	0
16.95999999999973	-1.044795560492611	-2.038212072496593	25.44487319240937	0	0.9399999999999999	0	31.80738638463493	-9.533890994795298	-8.905659037628556	34.90842341214739	0.6092669252222453	0	0	0	31.80738638463493	-9.533890994795298	-8.905659037628556	34.90842341214739	0.6092669252222453	0	0	0	-1.479934356217478	-1.565539753675851	12.25456687582546	59.36120366405172	-20.43491323277093	-2.377999914043675	43.1362590867715	89.00721922158	0	0	10.34233199169715	-7.145641014232052	-2.976251516195574	8.447395326492844	120.8999301013909	0	0
